<svg xmlns="http://www.w3.org/2000/svg" viewBox="0 0 1024 1024">
  <defs>
    <linearGradient id="bg" x1="0" y1="0" x2="0" y2="1">
      <stop offset="0" stop-color="#3ea6f2"/>
      <stop offset="1" stop-color="#0c3d95"/>
    </linearGradient>
    <linearGradient id="ground" x1="0" y1="0" x2="0" y2="1">
      <stop offset="0" stop-color="#2f77cc" stop-opacity=".5"/>
      <stop offset="1" stop-color="#163769" stop-opacity=".9"/>
    </linearGradient>
  </defs>
  <rect x="16" y="16" width="992" height="992" rx="170" fill="url(#bg)" stroke="#0a5cc6" stroke-width="10"/>
  <g fill="#dff2ff" opacity=".75">
    <ellipse cx="280" cy="210" rx="95" ry="42"/><ellipse cx="190" cy="290" rx="70" ry="32"/><ellipse cx="760" cy="220" rx="110" ry="44"/>
  </g>
  <rect x="70" y="585" width="884" height="248" rx="30" fill="url(#ground)"/>
  <rect x="480" y="80" width="64" height="90" fill="#0f57a7"/>
  <polygon points="475,120 512,95 549,120 540,153 484,153" fill="#ffbf2a"/>
  <circle cx="512" cy="136" r="16" fill="#222"/>
  <line x1="512" y1="152" x2="360" y2="280" stroke="#193d80" stroke-width="4"/>
  <line x1="512" y1="152" x2="670" y2="280" stroke="#193d80" stroke-width="4"/>
  <rect x="250" y="280" width="530" height="230" rx="14" fill="#ef4f35" stroke="#bf2f1e" stroke-width="6"/>
  <g stroke="#d9442f" stroke-width="4">
    <line x1="282" y1="290" x2="282" y2="500"/><line x1="306" y1="290" x2="306" y2="500"/><line x1="330" y1="290" x2="330" y2="500"/><line x1="354" y1="290" x2="354" y2="500"/><line x1="378" y1="290" x2="378" y2="500"/><line x1="402" y1="290" x2="402" y2="500"/><line x1="426" y1="290" x2="426" y2="500"/><line x1="450" y1="290" x2="450" y2="500"/><line x1="474" y1="290" x2="474" y2="500"/><line x1="498" y1="290" x2="498" y2="500"/><line x1="522" y1="290" x2="522" y2="500"/><line x1="546" y1="290" x2="546" y2="500"/><line x1="570" y1="290" x2="570" y2="500"/><line x1="594" y1="290" x2="594" y2="500"/><line x1="618" y1="290" x2="618" y2="500"/><line x1="642" y1="290" x2="642" y2="500"/><line x1="666" y1="290" x2="666" y2="500"/><line x1="690" y1="290" x2="690" y2="500"/><line x1="714" y1="290" x2="714" y2="500"/><line x1="738" y1="290" x2="738" y2="500"/>
  </g>
  <rect x="95" y="420" width="170" height="210" fill="#1a4f95"/>
  <rect x="110" y="435" width="230" height="200" rx="28" fill="#f4f6fa" stroke="#a4b1c6" stroke-width="4"/>
  <rect x="130" y="490" width="160" height="50" rx="8" fill="#2f4f7f"/>
  <rect x="150" y="565" width="120" height="25" rx="5" fill="#2c4d79"/>
  <g fill="#273651"><circle cx="145" cy="650" r="21"/><circle cx="210" cy="650" r="21"/><circle cx="285" cy="650" r="21"/></g>
  <rect x="355" y="535" width="315" height="320" rx="22" fill="#835628"/>
  <rect x="380" y="565" width="265" height="275" rx="16" fill="#eff3f7" stroke="#bdc6d2" stroke-width="3"/>
  <rect x="472" y="535" width="80" height="36" rx="10" fill="#dfe5eb" stroke="#7f8fa4" stroke-width="3"/>
  <g stroke="#18824a" stroke-width="7" fill="none">
    <polyline points="415,620 430,634 455,605"/>
    <polyline points="415,680 430,694 455,665"/>
    <polyline points="415,740 430,754 455,725"/>
  </g>
  <g stroke="#94a2b5" stroke-width="5"><line x1="468" y1="621" x2="610" y2="621"/><line x1="468" y1="681" x2="610" y2="681"/><line x1="468" y1="741" x2="610" y2="741"/></g>
  <polygon points="270,820 350,840 310,655 220,635" fill="#0f4b98" stroke="#ffbe2c" stroke-width="5"/>
  <rect x="240" y="640" width="84" height="58" rx="12" fill="#9fe44b"/>
  <g fill="#ffc328"><rect x="248" y="726" width="18" height="18"/><rect x="270" y="726" width="18" height="18"/><rect x="292" y="726" width="18" height="18"/><rect x="248" y="748" width="18" height="18"/><rect x="270" y="748" width="18" height="18"/><rect x="292" y="748" width="18" height="18"/></g>
  <polygon points="640,675 850,675 910,720 700,720" fill="#efcb8f"/>
  <polygon points="700,720 910,720 910,860 700,860" fill="#c8934e"/>
  <polygon points="640,675 700,720 700,860 640,815" fill="#b98445"/>
  <rect x="760" y="692" width="40" height="72" fill="#8a602f"/>
  <rect x="48" y="770" width="928" height="208" rx="104" fill="#022a73" opacity=".92"/>
  <text x="512" y="900" text-anchor="middle" font-size="76" font-family="Arial, Helvetica, sans-serif" font-weight="700" fill="#f4f8ff">Réception de Conteneur</text>
</svg>
